<svg width="32" height="32" viewBox="0 0 32 32" fill="none" xmlns="http://www.w3.org/2000/svg">
<path d="M14.2706 0C13.2147 0.668388 12.5564 1.88094 12.6635 3.20801C12.7675 4.4961 13.566 5.56322 14.664 6.07503C9.82312 6.78598 6.10802 10.9348 6.10802 15.9466C6.10802 21.4579 10.6007 25.9257 16.1426 25.9257C21.6846 25.9257 26.1772 21.4579 26.1772 15.9466C26.1772 11.9549 23.8206 8.51071 20.4155 6.91477C21.6374 7.34836 22.7586 8.02391 23.711 8.9009C24.6852 9.79801 25.4617 10.8864 25.9914 12.0973C26.521 13.3081 26.7923 14.615 26.788 15.9354C26.7819 17.8524 28.3395 19.4114 30.2671 19.4176C30.8972 19.4196 31.4888 19.2554 32 18.9665C30.5793 26.3889 24.0199 32 16.1426 32C7.2273 32 0 24.8126 0 15.9466C0 7.71024 6.23714 0.922624 14.2706 0Z" fill="url(#paint0_linear_628_107)"/>
<path d="M30.4529 17.2483C31.1758 17.2483 31.7618 16.6655 31.7618 15.9466C31.7618 15.2278 31.1758 14.645 30.4529 14.645C29.73 14.645 29.144 15.2278 29.144 15.9466C29.144 16.6655 29.73 17.2483 30.4529 17.2483Z" fill="#E0A402"/>
<defs>
<linearGradient id="paint0_linear_628_107" x1="7.61488" y1="1.99453e-07" x2="24.3851" y2="32" gradientUnits="userSpaceOnUse">
<stop stop-color="#2F2760"/>
<stop offset="0.58" stop-color="#5B4E9D"/>
<stop offset="1" stop-color="#9F7BB8"/>
</linearGradient>
</defs>
</svg>
